<?xml version="1.0" encoding="UTF-8" standalone="no"?>
<!-- Created with Inkscape (http://www.inkscape.org/) -->

<svg
   xmlns:dc="http://purl.org/dc/elements/1.1/"
   xmlns:cc="http://creativecommons.org/ns#"
   xmlns:rdf="http://www.w3.org/1999/02/22-rdf-syntax-ns#"
   xmlns:svg="http://www.w3.org/2000/svg"
   xmlns="http://www.w3.org/2000/svg"
   xmlns:sodipodi="http://sodipodi.sourceforge.net/DTD/sodipodi-0.dtd"
   xmlns:inkscape="http://www.inkscape.org/namespaces/inkscape"
   width="10.996993mm"
   height="8.7531166mm"
   viewBox="0 0 10.996993 8.7531166"
   version="1.1"
   id="svg8"
   inkscape:version="0.92.3 (2405546, 2018-03-11)"
   sodipodi:docname="logo.svg">
  <defs
     id="defs2" />
  <sodipodi:namedview
     id="base"
     pagecolor="#ffffff"
     bordercolor="#666666"
     borderopacity="1.0"
     inkscape:pageopacity="0.0"
     inkscape:pageshadow="2"
     inkscape:zoom="16.080939"
     inkscape:cx="20.781719"
     inkscape:cy="16.541323"
     inkscape:document-units="mm"
     inkscape:current-layer="layer1"
     showgrid="false"
     fit-margin-top="0"
     fit-margin-left="0"
     fit-margin-right="0"
     fit-margin-bottom="0"
     inkscape:window-width="1366"
     inkscape:window-height="713"
     inkscape:window-x="0"
     inkscape:window-y="27"
     inkscape:window-maximized="1" />
  <metadata
     id="metadata5">
    <rdf:RDF>
      <cc:Work
         rdf:about="">
        <dc:format>image/svg+xml</dc:format>
        <dc:type
           rdf:resource="http://purl.org/dc/dcmitype/StillImage" />
        <dc:title></dc:title>
      </cc:Work>
    </rdf:RDF>
  </metadata>
  <g
     inkscape:label="Layer 1"
     inkscape:groupmode="layer"
     id="layer1"
     transform="translate(-36.017269,-179.06237)">
    <path
       style="fill:#ffffff;stroke-width:0.0190366"
       d="m 41.328526,187.79809 c -0.325556,-0.0191 -0.681289,-0.12312 -0.834531,-0.24413 -0.03834,-0.0303 -0.142523,-0.0981 -0.231519,-0.15072 -0.089,-0.0526 -0.221776,-0.1402 -0.295068,-0.19463 -0.140151,-0.10409 -0.429175,-0.25766 -0.637726,-0.33884 -0.112495,-0.0438 -0.150549,-0.0483 -0.418805,-0.0497 -0.341478,-0.002 -0.408543,0.014 -0.815937,0.19224 -0.267487,0.11705 -0.618559,0.25354 -0.652121,0.25354 -0.03945,0 -0.002,-0.13502 0.06553,-0.23618 0.107977,-0.16178 0.364643,-0.43847 0.53125,-0.5727 0.198737,-0.16012 0.330614,-0.22743 0.563027,-0.28736 0.101484,-0.0262 0.325863,-0.0937 0.498619,-0.15014 0.472503,-0.15428 0.854735,-0.18289 1.162517,-0.087 0.164834,0.0514 0.46109,0.21814 0.67252,0.37864 0.238582,0.18111 0.416859,0.29348 0.624821,0.39383 0.257305,0.12417 0.365322,0.1415 0.881067,0.14131 l 0.437842,-1.6e-4 -0.09518,-0.0487 c -0.05235,-0.0268 -0.138015,-0.0807 -0.190366,-0.11993 -0.05235,-0.0392 -0.155148,-0.10631 -0.228439,-0.14914 -0.07329,-0.0428 -0.195076,-0.13375 -0.270633,-0.20206 -0.07556,-0.0683 -0.190151,-0.16003 -0.254653,-0.20383 -0.130017,-0.0883 -0.269752,-0.21489 -0.693057,-0.62788 -0.231223,-0.22559 -0.318145,-0.29696 -0.456878,-0.37512 -0.230625,-0.12994 -0.290495,-0.14351 -0.569186,-0.12899 -0.341916,0.0178 -0.469327,0.0502 -0.679571,0.17288 -0.263593,0.15378 -0.582111,0.31306 -0.626032,0.31306 -0.167985,0 0.214728,-0.50925 0.637409,-0.84815 0.06354,-0.051 0.219805,-0.14102 0.352177,-0.203 0.130877,-0.0613 0.302207,-0.14477 0.380733,-0.18555 0.07853,-0.0408 0.211306,-0.0978 0.295067,-0.12678 0.1432,-0.0495 0.175593,-0.0531 0.542543,-0.0598 0.38254,-0.007 0.391943,-0.006 0.475916,0.0386 0.224941,0.1203 0.454346,0.2718 0.520537,0.34376 0.09825,0.10682 0.06368,0.0445 -0.108938,-0.19647 -0.07876,-0.10993 -0.183262,-0.27698 -0.232227,-0.37121 -0.04896,-0.0942 -0.185319,-0.31696 -0.30301,-0.49495 -0.12556,-0.18989 -0.255213,-0.41409 -0.313758,-0.54254 -0.05487,-0.12041 -0.158899,-0.33153 -0.231163,-0.46916 -0.102639,-0.19547 -0.166271,-0.35585 -0.290798,-0.73291 -0.08768,-0.26547 -0.178553,-0.52551 -0.201952,-0.57786 l -0.04254,-0.0952 -0.07183,0.15464 c -0.07736,0.16656 -0.384903,0.70545 -0.742846,1.30166 -0.122573,0.20417 -0.263594,0.4526 -0.313379,0.55206 -0.04978,0.0995 -0.156598,0.28365 -0.237363,0.40929 -0.08076,0.12564 -0.196759,0.3141 -0.257764,0.41881 -0.06101,0.1047 -0.187007,0.30172 -0.280004,0.43784 -0.093,0.13611 -0.241751,0.35736 -0.330566,0.49167 -0.08881,0.13431 -0.228347,0.33134 -0.310072,0.43784 -0.08172,0.10651 -0.185801,0.24933 -0.231279,0.31738 -0.103938,0.15554 -0.193907,0.26722 -0.476498,0.59148 -0.284636,0.32661 -0.576074,0.58791 -0.845213,0.7578 -0.19919,0.12574 -0.241742,0.0441 -0.09317,-0.17873 0.08218,-0.12326 0.338055,-0.39171 0.634857,-0.66608 0.13881,-0.12831 0.486386,-0.57878 0.760664,-0.98583 0.100277,-0.14882 0.218089,-0.31886 0.261803,-0.37788 0.04371,-0.059 0.145307,-0.21749 0.22576,-0.35217 0.08045,-0.13469 0.19106,-0.30913 0.245794,-0.38766 0.05473,-0.0785 0.168965,-0.26864 0.253847,-0.42248 0.08488,-0.15384 0.221991,-0.38513 0.304686,-0.51399 0.0827,-0.12885 0.266843,-0.43988 0.409218,-0.69116 0.219504,-0.38741 0.273195,-0.49885 0.35311,-0.73291 0.05184,-0.15182 0.155631,-0.41079 0.230655,-0.57549 0.140211,-0.3078 0.266656,-0.72296 0.266656,-0.8755 0,-0.10106 0.05196,-0.1941 0.220656,-0.39517 0.215113,-0.25639 0.514438,-0.51595 0.671631,-0.58242 0.117066,-0.0495 0.116629,-0.0503 0.116903,0.20606 3.24e-4,0.29936 0.04015,0.49135 0.180682,0.87092 0.06008,0.16229 0.138577,0.39787 0.174427,0.52351 0.03585,0.12564 0.09035,0.30982 0.121107,0.40929 0.07461,0.24126 0.465798,1.06462 0.669299,1.4087 0.08979,0.15182 0.207658,0.3648 0.261931,0.47329 0.05427,0.10848 0.160796,0.29695 0.23672,0.4188 0.07592,0.12186 0.197115,0.32007 0.269316,0.44048 0.279317,0.46581 0.866281,1.19378 1.442827,1.78944 0.511167,0.52811 0.72767,0.74595 0.757718,0.76237 0.0534,0.0292 0.357644,0.1123 0.489759,0.13377 0.06961,0.0113 0.272191,0.028 0.450183,0.0371 0.479627,0.0245 0.873574,0.0576 0.891503,0.0749 0.06622,0.0641 -0.386899,0.59133 -0.679612,0.79082 l -0.111731,0.0761 -0.278519,0.0106 c -0.26755,0.0102 -1.141646,-0.0233 -1.176994,-0.0452 -0.0094,-0.006 -0.09808,-0.0246 -0.197044,-0.0418 -0.09896,-0.0172 -0.257032,-0.0561 -0.351264,-0.0866 -0.09423,-0.0305 -0.244144,-0.0761 -0.33314,-0.10137 -0.199257,-0.0566 -0.51981,-0.18026 -0.685946,-0.26457 l -0.124366,-0.0631 -0.06386,0.10933 c -0.136982,0.23452 -0.510318,0.61128 -0.734426,0.74117 -0.0949,0.055 -0.09609,0.0552 -0.399769,0.0524 -0.167522,-0.002 -0.411667,-0.009 -0.542543,-0.0167 z"
       id="path996"
       inkscape:connector-curvature="0" />
  </g>
</svg>
